<svg width="24" height="24" viewBox="0 0 24 24" fill="none" xmlns="http://www.w3.org/2000/svg">
<path d="M16.5491 12L23.372 5.17705C24.2093 4.33977 24.2093 2.98227 23.372 2.14432L21.8557 0.627955C21.0184 -0.209318 19.6609 -0.209318 18.823 0.627955L12 7.45091L5.17705 0.627955C4.33977 -0.209318 2.98227 -0.209318 2.14432 0.627955L0.627955 2.14432C-0.209318 2.98159 -0.209318 4.33909 0.627955 5.17705L7.45091 12L0.627955 18.823C-0.209318 19.6602 -0.209318 21.0177 0.627955 21.8557L2.14432 23.372C2.98159 24.2093 4.33977 24.2093 5.17705 23.372L12 16.5491L18.823 23.372C19.6602 24.2093 21.0184 24.2093 21.8557 23.372L23.372 21.8557C24.2093 21.0184 24.2093 19.6609 23.372 18.823L16.5491 12Z" fill="white" fill-opacity="0.75"/>
</svg>
