<svg width="24" height="24" viewBox="0 0 24 24" fill="none" xmlns="http://www.w3.org/2000/svg">
<path d="M23.7299 20.6256C24.499 22.1253 23.5336 24 21.9975 24H2.00226C0.46322 24 -0.497696 22.1224 0.269887 20.6256L10.2676 1.1243C11.0371 -0.376125 12.9643 -0.373406 13.7324 1.1243L23.7299 20.6256ZM12 16.5938C10.9415 16.5938 10.0833 17.5591 10.0833 18.75C10.0833 19.9409 10.9415 20.9062 12 20.9062C13.0585 20.9062 13.9167 19.9409 13.9167 18.75C13.9167 17.5591 13.0585 16.5938 12 16.5938ZM10.1803 8.84316L10.4894 15.2182C10.5038 15.5165 10.7231 15.75 10.9886 15.75H13.0114C13.2769 15.75 13.4962 15.5165 13.5106 15.2182L13.8197 8.84316C13.8353 8.52094 13.6073 8.25 13.3205 8.25H10.6795C10.3927 8.25 10.1647 8.52094 10.1803 8.84316Z" fill="#FC732F"/>
</svg>
